# AST/ASF file generated using VICON BodyLanguage
# -----------------------------------------------
:version 1.10
:name VICON
:units
  mass 1.0
  length 0.45
  angle deg
:documentation
   .ast/.asf automatically generated from VICON data using
   VICON BodyBuilder and BodyLanguage model FoxedUp or BRILLIANT.MOD
:root
   order TX TY TZ RX RY RZ
   axis XYZ
   position 0 0 0  
   orientation 0 0 0 
:bonedata
  begin
     id 1 
     name lhipjoint
     direction 0.521689 -0.742065 0.420928 
     length 2.47002 
     axis 0 0 0  XYZ
  end
  begin
     id 2 
     name lfemur
     direction 0.34202 -0.939693 0  
     length 7.24654  
     axis 0 0 20  XYZ
    dof rx ry rz
    limits (-160.0 20.0)
           (-70.0 70.0)
           (-60.0 70.0)
  end
  begin
     id 3 
     name ltibia
     direction 0.34202 -0.939693 0   
     length 8.04849   
     axis 0 0 20   XYZ
    dof rx
    limits (-10.0 170.0)
  end
  begin
     id 4 
     name lfoot
     direction 0.0745411 -0.2048 0.975961   
     length 1.72367   
     axis -90 7.62852e-016 20   XYZ
    dof rx rz
    limits (-45.0 90.0)
           (-70.0 20.0)
  end
  begin
     id 5 
     name ltoes
     direction 1.53556e-011 -4.21901e-011 1   
     length 0.87311   
     axis -90 7.62852e-016 20   XYZ
    dof rx
    limits (-90.0 20.0)
  end
  begin
     id 6 
     name rhipjoint
     direction -0.52849 -0.738415 0.418857   
     length 2.48223  
     axis 0 0 0  XYZ 
  end
  begin
     id 7 
     name rfemur
     direction -0.34202 -0.939693 0   
     length 7.15571   
     axis 0 0 -20   XYZ
    dof rx ry rz
    limits (-160.0 20.0)
           (-70.0 70.0)
           (-70.0 60.0)
  end
  begin
     id 8 
     name rtibia
     direction -0.34202 -0.939693 0   
     length 7.81659   
     axis 0 0 -20   XYZ
    dof rx
    limits (-10.0 170.0)
 end
 begin
     id 9 
     name rfoot
     direction -0.0917348 -0.252039 0.963359   
     length 1.84382  
     axis -90 -7.62852e-016 -20   XYZ
    dof rx rz
    limits (-45.0 90.0)
           (-20.0 70.0)
  end
  begin
     id 10 
     name rtoes
     direction -1.53551e-011 -4.21879e-011 1   
     length 0.927771   
     axis -90 -7.62852e-016 -20   XYZ
    dof rx
    limits (-90.0 20.0)
  end
  begin
     id 11 
     name lowerback
     direction 0.00583058 0.999822 0.0179296   
     length 2.1429   
     axis 0 0 0   XYZ
    dof rx ry rz
    limits (-20.0 45.0)
           (-30.0 30.0)
           (-30.0 30.0)
  end
  begin
     id 12 
     name upperback
     direction -0.0137999 0.999752 -0.0175071   
     length 2.14252   
     axis 0 0 0   XYZ
    dof rx ry rz
    limits (-20.0 45.0)
           (-30.0 30.0)
           (-30.0 30.0)
  end
  begin
     id 13 
     name thorax
     direction -0.0158036 0.99955 -0.0254909   
     length 2.1383   
     axis 0 0 0   XYZ
    dof rx ry rz
    limits (-20.0 45.0)
           (-30.0 30.0)
           (-30.0 30.0)
  end
  begin
     id 14 
     name lowerneck
     direction -0.0101179 0.999403 -0.0330262   
     length 1.65808   
     axis 0 0 0   XYZ
    dof rx ry rz
    limits (-20.0 45.0)
           (-30.0 30.0)
           (-30.0 30.0)
  end
  begin
     id 15 
     name upperneck
     direction 0.0497734 0.995978 -0.074501   
     length 1.5897   
     axis 0 0 0   XYZ
    dof rx ry rz
    limits (-20.0 45.0)
           (-30.0 30.0)
           (-30.0 30.0)
  end
  begin
     id 16
     name head
     direction 0.0189524 0.999519 -0.0245438  
     length 1.74024  
     axis 0 0 0   XYZ
    dof rx ry rz
    limits (-20.0 45.0)
           (-30.0 30.0)
           (-30.0 30.0)
  end
  begin
     id 17 
     name lclavicle
     direction 0.945604 0.324422 0.0241537  
     length 3.59089  
     axis 0 0 0   XYZ
    dof ry rz
    limits (-20.0 10.0)
           (0.0 20.0)
  end
  begin
     id 18 
     name lhumerus
     direction 1 -4.48964e-011 -2.63524e-027   
     length 5.2391   
     axis 180 -30 -90   XYZ
    dof rx ry rz
    limits (-60.0 90.0)
           (-90.0 90.0)
           (-90.0 90.0)
  end
  begin
     id 19
     name lradius
     direction 1 -4.48969e-011 3.86978e-028   
     length 3.31467   
     axis 180 -30 -90   XYZ
    dof rx
    limits (-10.0 170.0)
  end
  begin
     id 20
     name lwrist
     direction 1 -4.48963e-011 7.20928e-028   
     length 1.65734   
     axis -5.52449e-016 90 90   XYZ
    dof ry
    limits (-180.0 0.0)
 end
  begin
     id 21 
     name lhand
     direction 1 -4.48964e-011 1.44186e-027   
     length 0.9659   
     axis -9.20027e-016 90 90   XYZ
    dof rx rz
    limits (-90.0 90.0)
           (-45.0 45.0)
  end
  begin
     id 22 
     name lfingers
     direction 1 -4.48965e-011 2.88371e-027   
     length 0.778733   
     axis -1.84005e-015 90 90   XYZ
    dof rx
    limits (0.0 90.0)
  end
  begin
     id 23
     name lthumb
     direction 0.707107 -6.34931e-011 0.707107   
     length 1.11811   
     axis -90 45 2.85299e-015   XYZ
    dof rx rz
    limits (-45.0 45.0)
           (-45.0 45.0)
  end
  begin
     id 24 
     name rclavicle
     direction -0.923762 0.370785 0.0958234   
     length 3.54196  
     axis 0 0 0   XYZ 
    dof ry rz
    limits (-10.0 20.0)
           (-20.0 0.0)
  end
  begin
     id 25 
     name rhumerus
     direction -1 -4.48966e-011 1.18702e-017  
     length 5.30252   
     axis 180 30 90   XYZ
    dof rx ry rz
    limits (-90.0 60.0)
           (-90.0 90.0)
           (-90.0 90.0)
  end
  begin
     id 26 
     name rradius
     direction -1 -4.48966e-011 4.46736e-027   
     length 3.67875   
     axis 180 30 90   XYZ
    dof rx
    limits (-10.0 170.0)
  end
  begin
     id 27 
     name rwrist
     direction -1 -4.48966e-011 7.20928e-028   
     length 1.83937   
     axis -5.52449e-016 -90 -90   XYZ
    dof ry
    limits (-180.0 0.0)
  end
  begin
     id 28
     name rhand
     direction -1 -4.48973e-011 1.44186e-027   
     length 0.594811   
     axis -9.20027e-016 -90 -90   XYZ
    dof rx rz
    limits (-90.0 90.0)
           (-45.0 45.0)
  end
  begin
     id 29
     name rfingers
     direction -1 -4.48963e-011 2.88371e-027   
     length 0.479552   
     axis -1.84005e-015 -90 -90   XYZ
    dof rx
    limits (0.0 90.0)
  end
  begin
     id 30
     name rthumb
     direction -0.707107 -6.34932e-011 0.707107   
     length 0.688544   
     axis -90 -45 -2.85299e-015   XYZ
    dof rx rz
    limits (-45.0 45.0)
           (-45.0 45.0)
  end
:hierarchy
  begin
    root lhipjoint rhipjoint lowerback
    lhipjoint lfemur
    lfemur ltibia
    ltibia lfoot
    lfoot ltoes
    rhipjoint rfemur
    rfemur rtibia
    rtibia rfoot
    rfoot rtoes
    lowerback upperback
    upperback thorax
    thorax lowerneck lclavicle rclavicle
    lowerneck upperneck
    upperneck head
    lclavicle lhumerus
    lhumerus lradius
    lradius lwrist
    lwrist lhand lthumb
    lhand lfingers
    rclavicle rhumerus
    rhumerus rradius
    rradius rwrist
    rwrist rhand rthumb
    rhand rfingers
  end

#!OML:ASF E:\acrobat2\Project_11_07_03\Capture day 1\Session 1\Acrobat.ASF
:FULLY-SPECIFIED
:DEGREES
298
root 10.1461 20.7944 -15.8602 2.7975 0.763785 -0.422516
lowerback -11.4765 0.173519 1.0738
upperback -6.33651 0.147373 -1.86201
thorax -0.172073 0.0175402 -2.51938
lowerneck 0.156771 -0.318316 0.512459
upperneck 1.26503 -0.459836 3.19559
head 0.36551 -0.21454 0.887151
rclavicle -1.13307e-014 -7.95139e-016
rhumerus 70.7259 -40.3098 -42.0532
rradius 19.7737
rwrist 5.73507
rhand -17.7694 -25.562
rfingers 7.12502
rthumb 8.49288 -55.3713
lclavicle -1.13307e-014 -7.95139e-016
lhumerus 77.3767 29.1221 40.5141
lradius 20.5426
lwrist 0.102489
lhand -17.2136 -18.7059
lfingers 7.12502
lthumb 9.02925 11.0809
rfemur 7.16129 0.749833 20.4704
rtibia 2.51346
rfoot -19.5974 -6.35399
rtoes 12.2688
lfemur -8.08465 -2.1188 -16.3638
ltibia 28.0924
lfoot -25.0076 -12.1073
ltoes 5.24027
299
root 10.1467 20.7937 -15.8526 2.7915 0.759572 -0.406472
lowerback -11.5253 0.168442 1.06942
upperback -6.32202 0.141109 -1.86228
thorax -0.130867 0.0150042 -2.51798
lowerneck 0.321907 -0.419722 0.660066
upperneck 1.00279 -0.583216 3.00219
head 0.258815 -0.281174 0.802423
rclavicle 1.17283e-014 7.95139e-015
rhumerus 70.8052 -40.3059 -42.1351
rradius 19.7762
rwrist 5.79373
rhand -17.8251 -25.5014
rfingers 7.12502
rthumb 8.43913 -55.3128
lclavicle 1.17283e-014 7.95139e-015
lhumerus 77.4664 29.1837 40.6598
lradius 20.5219
lwrist -0.00534102
lhand -17.1797 -18.6817
lfingers 7.12502
lthumb 9.06199 11.1036
rfemur 7.09939 0.752312 20.4622
rtibia 2.72302
rfoot -19.7231 -6.27122
rtoes 12.48
lfemur -8.04047 -2.07113 -16.3816
ltibia 28.0754
lfoot -25.0004 -12.1378
ltoes 5.10745
300
root 10.1471 20.7932 -15.8457 2.79924 0.747925 -0.386795
lowerback -11.5765 0.16577 1.0565
upperback -6.30846 0.138817 -1.86086
thorax -0.0891595 0.0146783 -2.50956
lowerneck 0.529438 -0.529242 0.815567
upperneck 0.656795 -0.714481 2.78643
head 0.119973 -0.35292 0.710729
rclavicle -1.03368e-014 -1.47101e-014
rhumerus 70.9394 -40.3229 -42.2789
rradius 19.7728
rwrist 5.89773
rhand -17.8874 -25.4406
rfingers 7.12502
rthumb 8.379 -55.2544
lclavicle -1.03368e-014 -1.47101e-014
lhumerus 77.5436 29.26 40.7659
lradius 20.5116
lwrist -0.0308083
lhand -17.1477 -18.6607
lfingers 7.12502
lthumb 9.09287 11.1233
rfemur 7.03366 0.762424 20.4475
rtibia 2.87912
rfoot -19.8075 -6.21392
rtoes 12.6695
lfemur -8.01169 -2.03903 -16.4052
ltibia 28.0563
lfoot -25.0075 -12.14
ltoes 4.9706
301
root 10.1474 20.7936 -15.8398 2.82357 0.731091 -0.369024
lowerback -11.6301 0.164639 1.03942
upperback -6.29815 0.138904 -1.85652
thorax -0.0493844 0.015633 -2.49549
lowerneck 0.717819 -0.621069 0.931486
upperneck 0.343259 -0.824125 2.61101
head -0.00558402 -0.412993 0.639112
rclavicle 6.36111e-015 -8.74653e-015
rhumerus 71.114 -40.3571 -42.4654
rradius 19.7645
rwrist 6.02268
rhand -17.9309 -25.3716
rfingers 7.12502
rthumb 8.337 -55.1871
lclavicle 6.36111e-015 -8.74653e-015
lhumerus 77.5866 29.3515 40.7957
lradius 20.516
lwrist 0.0157664
lhand -17.1257 -18.6359
lfingers 7.12502
lthumb 9.11409 11.1471
rfemur 6.98375 0.778254 20.4312
rtibia 2.9591
rfoot -19.8516 -6.17978
rtoes 12.8281
lfemur -8.00477 -2.01984 -16.4267
ltibia 28.0377
lfoot -25.0236 -12.122
ltoes 4.85067
302
root 10.1476 20.794 -15.8346 2.85623 0.70707 -0.362972
lowerback -11.6815 0.166252 1.03146
upperback -6.29018 0.141652 -1.84832
thorax -0.0131397 0.0176992 -2.48226
lowerneck 0.876761 -0.694006 0.999061
upperneck 0.0808786 -0.911204 2.49329
head -0.110684 -0.460753 0.593682
rclavicle -1.19271e-015 -3.02153e-014
rhumerus 71.2637 -40.3931 -42.6098
rradius 19.763
rwrist 6.0951
rhand -17.9558 -25.3009
rfingers 7.12502
rthumb 8.31302 -55.1174
lclavicle -1.19271e-015 -3.02153e-014
lhumerus 77.5781 29.4509 40.7256
lradius 20.5378
lwrist 0.129846
lhand -17.123 -18.6105
lfingers 7.12502
lthumb 9.11662 11.1725
rfemur 6.97482 0.802498 20.4207
rtibia 2.91712
rfoot -19.832 -6.17858
rtoes 12.9484
lfemur -8.01575 -2.00623 -16.4352
ltibia 28.0306
lfoot -25.0509 -12.0939
ltoes 4.75185
303
root 10.1479 20.7944 -15.8296 2.88779 0.679988 -0.369158
lowerback -11.7292 0.167904 1.03604
upperback -6.28284 0.143151 -1.83647
thorax 0.0203479 0.0188671 -2.47244
lowerneck 0.984259 -0.737682 1.00746
upperneck -0.0689535 -0.963687 2.4593
head -0.173251 -0.489509 0.583204
rclavicle 3.18055e-015 -2.18663e-014
rhumerus 71.3564 -40.4161 -42.6719
rradius 19.772
rwrist 6.08579
rhand -17.9745 -25.2462
rfingers 7.12502
rthumb 8.29498 -55.0634
lclavicle 3.18055e-015 -2.18663e-014
lhumerus 77.5037 29.552 40.5417
lradius 20.5767
lwrist 0.303129
lhand -17.1302 -18.5804
lfingers 7.12502
lthumb 9.10973 11.2029
rfemur 7.02943 0.83121 20.415
rtibia 2.75424
rfoot -19.7629 -6.1945
rtoes 13.0806
lfemur -8.03125 -1.99351 -16.4306
ltibia 28.0334
lfoot -25.0889 -12.0634
ltoes 4.6475
304
root 10.1485 20.7941 -15.8241 2.91505 0.663512 -0.384105
lowerback -11.7749 0.164443 1.05256
upperback -6.27915 0.136652 -1.82293
thorax 0.0485636 0.0157102 -2.46853
lowerneck 0.956119 -0.711164 0.886158
upperneck 0.0736753 -0.933463 2.5969
head -0.124786 -0.472777 0.644432
rclavicle -7.7526e-015 -1.31198e-014
rhumerus 71.3762 -40.415 -42.638
rradius 19.7917
rwrist 6.00258
rhand -17.9893 -25.2151
rfingers 7.12502
rthumb 8.28063 -55.0328
lclavicle -7.7526e-015 -1.31198e-014
lhumerus 77.369 29.6416 40.2678
lradius 20.6272
lwrist 0.514722
lhand -17.1396 -18.549
lfingers 7.12502
lthumb 9.10068 11.2347
rfemur 7.15547 0.850854 20.4084
rtibia 2.46133
rfoot -19.6328 -6.23565
rtoes 13.1631
lfemur -8.04958 -1.97459 -16.4152
ltibia 28.0495
lfoot -25.1249 -12.056
ltoes 4.55152
305
root 10.1496 20.7939 -15.8177 2.93847 0.661594 -0.406096
lowerback -11.8195 0.155431 1.0789
upperback -6.28428 0.121745 -1.80825
thorax 0.0664828 0.00797987 -2.46998
lowerneck 0.896345 -0.664072 0.744155
upperneck 0.322005 -0.879515 2.76275
head -0.0392351 -0.44265 0.717512
rclavicle 4.96962e-015 -1.03368e-014
rhumerus 71.2778 -40.3788 -42.4547
rradius 19.8314
rwrist 5.82725
rhand -18.0248 -25.2166
rfingers 7.12502
rthumb 8.24641 -55.0357
lclavicle 4.96962e-015 -1.03368e-014
lhumerus 77.191 29.7044 39.9476
lradius 20.6841
lwrist 0.752044
lhand -17.1533 -18.5175
lfingers 7.12502
lthumb 9.08745 11.2667
rfemur 7.33629 0.857169 20.4016
rtibia 2.10484
rfoot -19.4882 -6.27276
rtoes 13.2588
lfemur -8.06449 -1.95017 -16.3913
ltibia 28.0689
lfoot -25.148 -12.0789
ltoes 4.48701
306
root 10.1511 20.7931 -15.8102 2.95838 0.672829 -0.422281
lowerback -11.861 0.1427 1.10264
upperback -6.30033 0.102137 -1.79635
thorax 0.0710153 -0.00229257 -2.47342
lowerneck 0.756473 -0.572816 0.536864
upperneck 0.767199 -0.774595 3.02804
head 0.11918 -0.383913 0.832035
rclavicle 1.78906e-014 7.55382e-015
rhumerus 71.0672 -40.3133 -42.1348
rradius 19.8905
rwrist 5.58001
rhand -18.088 -25.2554
rfingers 7.12502
rthumb 8.18544 -55.0769
lclavicle 1.78906e-014 7.55382e-015
lhumerus 76.9981 29.7353 39.6314
lradius 20.7413
lwrist 1.0011
lhand -17.1642 -18.4937
lfingers 7.12502
lthumb 9.0769 11.291
rfemur 7.52158 0.850332 20.3869
rtibia 1.75773
rfoot -19.3484 -6.3148
rtoes 13.2893
lfemur -8.07249 -1.93067 -16.3753
ltibia 28.0882
lfoot -25.1653 -12.1187
ltoes 4.42839
307
root 10.1531 20.7924 -15.8019 2.97279 0.692112 -0.422316
lowerback -11.8966 0.130514 1.11714
upperback -6.32338 0.0842537 -1.79267
thorax 0.0651631 -0.0117704 -2.47999
lowerneck 0.609394 -0.47314 0.317677
upperneck 1.23646 -0.660538 3.31896
head 0.286582 -0.319832 0.958235
rclavicle 1.39149e-015 1.59028e-014
rhumerus 70.8022 -40.2402 -41.7547
rradius 19.9567
rwrist 5.31125
rhand -18.1595 -25.3194
rfingers 7.12502
rthumb 8.11635 -55.1436
lclavicle 1.39149e-015 1.59028e-014
lhumerus 76.8269 29.7369 39.3664
lradius 20.7909
lwrist 1.23648
lhand -17.1873 -18.4943
lfingers 7.12502
lthumb 9.05461 11.2914
rfemur 7.64643 0.820175 20.3623
rtibia 1.57388
rfoot -19.29 -6.31612
rtoes 13.2676
lfemur -8.06441 -1.91972 -16.3806
ltibia 28.0967
lfoot -25.1812 -12.1589
ltoes 4.36555
308
root 10.1553 20.7913 -15.7932 2.98044 0.70822 -0.407811
lowerback -11.9262 0.123547 1.12209
upperback -6.3464 0.0743416 -1.79632
thorax 0.0564864 -0.0171841 -2.48786
lowerneck 0.493364 -0.392137 0.117682
upperneck 1.62569 -0.569432 3.59226
head 0.425288 -0.268113 1.07748
rclavicle 8.54774e-015 3.57812e-015
rhumerus 70.5598 -40.1805 -41.41
rradius 20.0141
rwrist 5.0774
rhand -18.2226 -25.3943
rfingers 7.12502
rthumb 8.0555 -55.2208
lclavicle 8.54774e-015 3.57812e-015
lhumerus 76.6933 29.7224 39.163
lradius 20.8301
lwrist 1.43439
lhand -17.2193 -18.5088
lfingers 7.12502
lthumb 9.02375 11.2782
rfemur 7.6537 0.804269 20.3401
rtibia 1.62637
rfoot -19.3369 -6.3011
rtoes 13.1702
lfemur -8.04134 -1.91871 -16.4054
ltibia 28.0964
lfoot -25.2013 -12.1845
ltoes 4.31344
